<?xml version="1.0" encoding="UTF-8"?>
<mxfile host="app.diagrams.net" modified="2022-12-23T12:22:52.649Z" agent="5.0 (Windows)" etag="KJaTxgPdREIf-avswLk7" version="20.7.4" type="google">
  <diagram id="C5RBs43oDa-KdzZeNtuy" name="Page-1">
    <mxGraphModel dx="1434" dy="2326" grid="1" gridSize="10" guides="1" tooltips="1" connect="1" arrows="1" fold="1" page="1" pageScale="1" pageWidth="1200" pageHeight="1600" math="0" shadow="0">
      <root>
        <mxCell id="WIyWlLk6GJQsqaUBKTNV-0" />
        <mxCell id="WIyWlLk6GJQsqaUBKTNV-1" parent="WIyWlLk6GJQsqaUBKTNV-0" />
        <mxCell id="uj2GFUp7TWxMebJnhP7S-3" value="" style="rounded=1;whiteSpace=wrap;html=1;fillColor=none;" parent="WIyWlLk6GJQsqaUBKTNV-1" vertex="1">
          <mxGeometry x="991" y="-1355" width="197" height="349" as="geometry" />
        </mxCell>
        <mxCell id="uj2GFUp7TWxMebJnhP7S-2" value="" style="rounded=1;whiteSpace=wrap;html=1;fillColor=none;" parent="WIyWlLk6GJQsqaUBKTNV-1" vertex="1">
          <mxGeometry x="754" y="-1560" width="216" height="540" as="geometry" />
        </mxCell>
        <mxCell id="uj2GFUp7TWxMebJnhP7S-0" value="" style="rounded=1;whiteSpace=wrap;html=1;fillColor=none;" parent="WIyWlLk6GJQsqaUBKTNV-1" vertex="1">
          <mxGeometry x="755" y="-1005" width="219" height="360" as="geometry" />
        </mxCell>
        <mxCell id="8gSaWVuiy5hUUqjR6Z7Z-123" value="" style="endArrow=open;html=1;endSize=12;startArrow=diamondThin;startSize=14;startFill=1;align=left;verticalAlign=bottom;rounded=0;exitX=0.429;exitY=0.077;exitDx=0;exitDy=0;exitPerimeter=0;entryX=0.421;entryY=1;entryDx=0;entryDy=0;entryPerimeter=0;" parent="WIyWlLk6GJQsqaUBKTNV-1" source="8gSaWVuiy5hUUqjR6Z7Z-113" target="8gSaWVuiy5hUUqjR6Z7Z-121" edge="1">
          <mxGeometry x="-0.5278" y="5" relative="1" as="geometry">
            <mxPoint x="640" y="-1130" as="sourcePoint" />
            <mxPoint x="640" y="-1240" as="targetPoint" />
            <mxPoint as="offset" />
          </mxGeometry>
        </mxCell>
        <mxCell id="8gSaWVuiy5hUUqjR6Z7Z-84" value="&lt;div&gt;«Union»&lt;b&gt;&lt;br&gt;&lt;/b&gt;&lt;/div&gt;&lt;div&gt;&lt;b&gt;HTML&lt;/b&gt;&lt;/div&gt;" style="html=1;fillColor=#ffe6cc;strokeColor=#d79b00;rounded=0;" parent="WIyWlLk6GJQsqaUBKTNV-1" vertex="1">
          <mxGeometry x="258" y="-957" width="110" height="50" as="geometry" />
        </mxCell>
        <mxCell id="8gSaWVuiy5hUUqjR6Z7Z-85" value="Contenu" style="swimlane;fontStyle=1;childLayout=stackLayout;horizontal=1;startSize=26;fillColor=#ffe6cc;horizontalStack=0;resizeParent=1;resizeParentMax=0;resizeLast=0;collapsible=1;marginBottom=0;strokeColor=#d79b00;rounded=0;" parent="WIyWlLk6GJQsqaUBKTNV-1" vertex="1">
          <mxGeometry x="243" y="-1107" width="140" height="78" as="geometry" />
        </mxCell>
        <mxCell id="x3ndrFD1Gh-NryQpKRno-5" value="1" style="endArrow=open;html=1;endSize=12;startArrow=diamondThin;startSize=14;startFill=1;align=left;verticalAlign=bottom;entryX=0;entryY=0.5;entryDx=0;entryDy=0;" parent="8gSaWVuiy5hUUqjR6Z7Z-85" target="8gSaWVuiy5hUUqjR6Z7Z-113" edge="1">
          <mxGeometry x="-1" y="3" relative="1" as="geometry">
            <mxPoint x="137" y="17" as="sourcePoint" />
            <mxPoint x="332" y="16" as="targetPoint" />
          </mxGeometry>
        </mxCell>
        <mxCell id="x3ndrFD1Gh-NryQpKRno-6" value="se décompose en" style="edgeLabel;html=1;align=center;verticalAlign=middle;resizable=0;points=[];" parent="x3ndrFD1Gh-NryQpKRno-5" connectable="0" vertex="1">
          <mxGeometry x="-0.3733" relative="1" as="geometry">
            <mxPoint x="12" y="-8" as="offset" />
          </mxGeometry>
        </mxCell>
        <mxCell id="8gSaWVuiy5hUUqjR6Z7Z-86" value="+ id: URI" style="text;strokeColor=none;fillColor=#ffe6cc;align=left;verticalAlign=top;spacingLeft=4;spacingRight=4;overflow=hidden;rotatable=0;points=[[0,0.5],[1,0.5]];portConstraint=eastwest;rounded=0;" parent="8gSaWVuiy5hUUqjR6Z7Z-85" vertex="1">
          <mxGeometry y="26" width="140" height="26" as="geometry" />
        </mxCell>
        <mxCell id="8gSaWVuiy5hUUqjR6Z7Z-87" value="+ href: URI&#xa;" style="text;strokeColor=none;fillColor=#ffe6cc;align=left;verticalAlign=top;spacingLeft=4;spacingRight=4;overflow=hidden;rotatable=0;points=[[0,0.5],[1,0.5]];portConstraint=eastwest;rounded=0;" parent="8gSaWVuiy5hUUqjR6Z7Z-85" vertex="1">
          <mxGeometry y="52" width="140" height="26" as="geometry" />
        </mxCell>
        <mxCell id="8gSaWVuiy5hUUqjR6Z7Z-88" value="&lt;i&gt;est composé de&lt;/i&gt;" style="endArrow=open;html=1;endSize=12;startArrow=diamondThin;startSize=14;startFill=1;edgeStyle=orthogonalEdgeStyle;align=left;verticalAlign=bottom;rounded=0;entryX=0.5;entryY=0;entryDx=0;entryDy=0;exitX=0.5;exitY=1;exitDx=0;exitDy=0;" parent="WIyWlLk6GJQsqaUBKTNV-1" edge="1">
          <mxGeometry x="0.3611" y="-33" relative="1" as="geometry">
            <mxPoint x="312.7099999999991" y="-1029" as="sourcePoint" />
            <mxPoint x="312.7099999999991" y="-957" as="targetPoint" />
            <mxPoint as="offset" />
          </mxGeometry>
        </mxCell>
        <mxCell id="8gSaWVuiy5hUUqjR6Z7Z-89" value="Titre" style="swimlane;fontStyle=1;childLayout=stackLayout;horizontal=1;startSize=26;fillColor=#ffe6cc;horizontalStack=0;resizeParent=1;resizeParentMax=0;resizeLast=0;collapsible=1;marginBottom=0;strokeColor=#d79b00;rounded=0;" parent="WIyWlLk6GJQsqaUBKTNV-1" vertex="1">
          <mxGeometry x="243" y="-1337" width="140" height="156" as="geometry" />
        </mxCell>
        <mxCell id="8gSaWVuiy5hUUqjR6Z7Z-90" value="+ id : URI" style="text;strokeColor=none;fillColor=#ffe6cc;align=left;verticalAlign=top;spacingLeft=4;spacingRight=4;overflow=hidden;rotatable=0;points=[[0,0.5],[1,0.5]];portConstraint=eastwest;rounded=0;" parent="8gSaWVuiy5hUUqjR6Z7Z-89" vertex="1">
          <mxGeometry y="26" width="140" height="26" as="geometry" />
        </mxCell>
        <mxCell id="8gSaWVuiy5hUUqjR6Z7Z-91" value="+ intitule : varchar" style="text;strokeColor=none;fillColor=#ffe6cc;align=left;verticalAlign=top;spacingLeft=4;spacingRight=4;overflow=hidden;rotatable=0;points=[[0,0.5],[1,0.5]];portConstraint=eastwest;rounded=0;" parent="8gSaWVuiy5hUUqjR6Z7Z-89" vertex="1">
          <mxGeometry y="52" width="140" height="26" as="geometry" />
        </mxCell>
        <mxCell id="8gSaWVuiy5hUUqjR6Z7Z-92" value="+ niveau: integer" style="text;strokeColor=none;fillColor=#ffe6cc;align=left;verticalAlign=top;spacingLeft=4;spacingRight=4;overflow=hidden;rotatable=0;points=[[0,0.5],[1,0.5]];portConstraint=eastwest;rounded=0;" parent="8gSaWVuiy5hUUqjR6Z7Z-89" vertex="1">
          <mxGeometry y="78" width="140" height="26" as="geometry" />
        </mxCell>
        <mxCell id="8gSaWVuiy5hUUqjR6Z7Z-93" value="+ numero :varchar&#xa;" style="text;strokeColor=none;fillColor=#ffe6cc;align=left;verticalAlign=top;spacingLeft=4;spacingRight=4;overflow=hidden;rotatable=0;points=[[0,0.5],[1,0.5]];portConstraint=eastwest;rounded=0;" parent="8gSaWVuiy5hUUqjR6Z7Z-89" vertex="1">
          <mxGeometry y="104" width="140" height="26" as="geometry" />
        </mxCell>
        <mxCell id="8gSaWVuiy5hUUqjR6Z7Z-94" value="+ href:URI" style="text;strokeColor=none;fillColor=#ffe6cc;align=left;verticalAlign=top;spacingLeft=4;spacingRight=4;overflow=hidden;rotatable=0;points=[[0,0.5],[1,0.5]];portConstraint=eastwest;rounded=0;" parent="8gSaWVuiy5hUUqjR6Z7Z-89" vertex="1">
          <mxGeometry y="130" width="140" height="26" as="geometry" />
        </mxCell>
        <mxCell id="8gSaWVuiy5hUUqjR6Z7Z-95" value="&lt;i&gt;contient&lt;/i&gt;" style="endArrow=open;html=1;endSize=12;startArrow=diamondThin;startSize=14;startFill=1;edgeStyle=orthogonalEdgeStyle;align=left;verticalAlign=bottom;rounded=0;entryX=0.5;entryY=0;entryDx=0;entryDy=0;exitX=0.5;exitY=1;exitDx=0;exitDy=0;" parent="WIyWlLk6GJQsqaUBKTNV-1" edge="1">
          <mxGeometry x="0.1111" y="-21" relative="1" as="geometry">
            <mxPoint x="310.7099999999991" y="-1180" as="sourcePoint" />
            <mxPoint x="310.7099999999991" y="-1108.000000000001" as="targetPoint" />
            <mxPoint as="offset" />
          </mxGeometry>
        </mxCell>
        <mxCell id="8gSaWVuiy5hUUqjR6Z7Z-96" value="&lt;i&gt;contient&lt;/i&gt;" style="endArrow=open;html=1;endSize=12;startArrow=diamondThin;startSize=14;startFill=1;edgeStyle=orthogonalEdgeStyle;align=left;verticalAlign=bottom;rounded=0;entryX=0.5;entryY=0;entryDx=0;entryDy=0;exitX=0.5;exitY=1;exitDx=0;exitDy=0;" parent="WIyWlLk6GJQsqaUBKTNV-1" source="8gSaWVuiy5hUUqjR6Z7Z-98" edge="1">
          <mxGeometry x="-0.0089" y="-23" relative="1" as="geometry">
            <mxPoint x="313.7099999999991" y="-1407" as="sourcePoint" />
            <mxPoint x="313.7099999999991" y="-1335" as="targetPoint" />
            <mxPoint x="-23" y="-19" as="offset" />
          </mxGeometry>
        </mxCell>
        <mxCell id="8gSaWVuiy5hUUqjR6Z7Z-97" value="1" style="endArrow=open;html=1;endSize=12;startArrow=diamondThin;startSize=14;startFill=1;edgeStyle=orthogonalEdgeStyle;align=left;verticalAlign=bottom;rounded=0;exitX=0.75;exitY=0;exitDx=0;exitDy=0;" parent="WIyWlLk6GJQsqaUBKTNV-1" source="8gSaWVuiy5hUUqjR6Z7Z-89" edge="1">
          <mxGeometry x="-1" y="-7" relative="1" as="geometry">
            <mxPoint x="463" y="-1227" as="sourcePoint" />
            <mxPoint x="383" y="-1247" as="targetPoint" />
            <Array as="points">
              <mxPoint x="348" y="-1350" />
              <mxPoint x="413" y="-1350" />
              <mxPoint x="413" y="-1247" />
            </Array>
            <mxPoint x="-5" y="7" as="offset" />
          </mxGeometry>
        </mxCell>
        <mxCell id="uj2GFUp7TWxMebJnhP7S-23" value="&lt;i&gt;a pour sous-titre&lt;/i&gt;" style="edgeLabel;html=1;align=center;verticalAlign=middle;resizable=0;points=[];" parent="8gSaWVuiy5hUUqjR6Z7Z-97" connectable="0" vertex="1">
          <mxGeometry x="-0.6133" y="1" relative="1" as="geometry">
            <mxPoint x="7" y="-11" as="offset" />
          </mxGeometry>
        </mxCell>
        <mxCell id="8gSaWVuiy5hUUqjR6Z7Z-98" value="ReglementPLU" style="swimlane;fontStyle=1;childLayout=stackLayout;horizontal=1;startSize=26;fillColor=#ffe6cc;horizontalStack=0;resizeParent=1;resizeParentMax=0;resizeLast=0;collapsible=1;marginBottom=0;strokeColor=#d79b00;rounded=0;" parent="WIyWlLk6GJQsqaUBKTNV-1" vertex="1">
          <mxGeometry x="243" y="-1517" width="140" height="104" as="geometry" />
        </mxCell>
        <mxCell id="8gSaWVuiy5hUUqjR6Z7Z-99" value="+ id : URI" style="text;strokeColor=none;fillColor=#ffe6cc;align=left;verticalAlign=top;spacingLeft=4;spacingRight=4;overflow=hidden;rotatable=0;points=[[0,0.5],[1,0.5]];portConstraint=eastwest;rounded=0;" parent="8gSaWVuiy5hUUqjR6Z7Z-98" vertex="1">
          <mxGeometry y="26" width="140" height="26" as="geometry" />
        </mxCell>
        <mxCell id="8gSaWVuiy5hUUqjR6Z7Z-100" value="+ nom: varchar" style="text;strokeColor=none;fillColor=#ffe6cc;align=left;verticalAlign=top;spacingLeft=4;spacingRight=4;overflow=hidden;rotatable=0;points=[[0,0.5],[1,0.5]];portConstraint=eastwest;rounded=0;" parent="8gSaWVuiy5hUUqjR6Z7Z-98" vertex="1">
          <mxGeometry y="52" width="140" height="26" as="geometry" />
        </mxCell>
        <mxCell id="8gSaWVuiy5hUUqjR6Z7Z-101" value="+ lien : varchar" style="text;strokeColor=none;fillColor=#ffe6cc;align=left;verticalAlign=top;spacingLeft=4;spacingRight=4;overflow=hidden;rotatable=0;points=[[0,0.5],[1,0.5]];portConstraint=eastwest;rounded=0;" parent="8gSaWVuiy5hUUqjR6Z7Z-98" vertex="1">
          <mxGeometry y="78" width="140" height="26" as="geometry" />
        </mxCell>
        <mxCell id="8gSaWVuiy5hUUqjR6Z7Z-102" value="&lt;div&gt;&lt;span style=&quot;background-color: initial;&quot;&gt;Standard CNIG PLU :&lt;/span&gt;&lt;br&gt;&lt;/div&gt;&lt;b&gt;PRESCRIPTION&lt;br&gt;&lt;/b&gt;" style="html=1;rounded=0;fillColor=#fff2cc;strokeColor=#d6b656;" parent="WIyWlLk6GJQsqaUBKTNV-1" vertex="1">
          <mxGeometry x="23" y="-1037" width="150" height="60" as="geometry" />
        </mxCell>
        <mxCell id="8gSaWVuiy5hUUqjR6Z7Z-103" value="&lt;div&gt;&lt;span style=&quot;background-color: initial;&quot;&gt;Standard CNIG PLU :&lt;/span&gt;&lt;br&gt;&lt;/div&gt;&lt;b&gt;DOC_URBA&lt;br&gt;&lt;/b&gt;" style="html=1;rounded=0;fillColor=#fff2cc;strokeColor=#d6b656;" parent="WIyWlLk6GJQsqaUBKTNV-1" vertex="1">
          <mxGeometry x="33" y="-1518" width="140" height="60" as="geometry" />
        </mxCell>
        <mxCell id="8gSaWVuiy5hUUqjR6Z7Z-104" value="&lt;i&gt;concerne&lt;br&gt;&lt;/i&gt;" style="html=1;verticalAlign=bottom;endArrow=block;rounded=0;entryX=1;entryY=0.25;entryDx=0;entryDy=0;exitX=0;exitY=1.019;exitDx=0;exitDy=0;exitPerimeter=0;" parent="WIyWlLk6GJQsqaUBKTNV-1" source="8gSaWVuiy5hUUqjR6Z7Z-86" target="8gSaWVuiy5hUUqjR6Z7Z-102" edge="1">
          <mxGeometry width="80" relative="1" as="geometry">
            <mxPoint x="413" y="-1257" as="sourcePoint" />
            <mxPoint x="493" y="-1257" as="targetPoint" />
          </mxGeometry>
        </mxCell>
        <mxCell id="8gSaWVuiy5hUUqjR6Z7Z-105" value="&lt;i&gt;Concerne&lt;/i&gt;" style="html=1;verticalAlign=bottom;endArrow=block;rounded=0;entryX=1;entryY=0.75;entryDx=0;entryDy=0;exitX=0;exitY=0.5;exitDx=0;exitDy=0;" parent="WIyWlLk6GJQsqaUBKTNV-1" source="8gSaWVuiy5hUUqjR6Z7Z-84" target="8gSaWVuiy5hUUqjR6Z7Z-102" edge="1">
          <mxGeometry width="80" relative="1" as="geometry">
            <mxPoint x="393" y="-1058" as="sourcePoint" />
            <mxPoint x="473" y="-1004" as="targetPoint" />
          </mxGeometry>
        </mxCell>
        <mxCell id="8gSaWVuiy5hUUqjR6Z7Z-106" value="&lt;i&gt;référence&lt;/i&gt;" style="html=1;verticalAlign=bottom;endArrow=block;rounded=0;exitX=0.007;exitY=0.1;exitDx=0;exitDy=0;exitPerimeter=0;entryX=1;entryY=0.183;entryDx=0;entryDy=0;entryPerimeter=0;" parent="WIyWlLk6GJQsqaUBKTNV-1" source="8gSaWVuiy5hUUqjR6Z7Z-98" target="8gSaWVuiy5hUUqjR6Z7Z-103" edge="1">
          <mxGeometry width="80" relative="1" as="geometry">
            <mxPoint x="243" y="-1490" as="sourcePoint" />
            <mxPoint x="173" y="-1494.5" as="targetPoint" />
          </mxGeometry>
        </mxCell>
        <mxCell id="8gSaWVuiy5hUUqjR6Z7Z-107" value="&lt;i&gt;est de type&lt;/i&gt;" style="html=1;verticalAlign=bottom;endArrow=block;rounded=0;exitX=0;exitY=0.5;exitDx=0;exitDy=0;entryX=0.993;entryY=0.667;entryDx=0;entryDy=0;entryPerimeter=0;" parent="WIyWlLk6GJQsqaUBKTNV-1" source="8gSaWVuiy5hUUqjR6Z7Z-99" target="8gSaWVuiy5hUUqjR6Z7Z-103" edge="1">
          <mxGeometry width="80" relative="1" as="geometry">
            <mxPoint x="243.55999999999995" y="-1477.94" as="sourcePoint" />
            <mxPoint x="173.98000000000002" y="-1476.5" as="targetPoint" />
          </mxGeometry>
        </mxCell>
        <mxCell id="8gSaWVuiy5hUUqjR6Z7Z-108" value="&lt;div&gt;&lt;span style=&quot;background-color: initial;&quot;&gt;Standard CNIG PLU :&lt;/span&gt;&lt;/div&gt;&lt;b&gt;ZONE_URBA&lt;br&gt;&lt;/b&gt;" style="html=1;rounded=0;fillColor=#fff2cc;strokeColor=#d6b656;" parent="WIyWlLk6GJQsqaUBKTNV-1" vertex="1">
          <mxGeometry x="23" y="-1187" width="150" height="60" as="geometry" />
        </mxCell>
        <mxCell id="8gSaWVuiy5hUUqjR6Z7Z-109" value="&lt;div&gt;&lt;span style=&quot;background-color: initial;&quot;&gt;Standard CNIG PLU :&lt;/span&gt;&lt;br&gt;&lt;/div&gt;&lt;b&gt;DOC_URBA_COM&lt;br&gt;&lt;/b&gt;" style="html=1;rounded=0;fillColor=#fff2cc;strokeColor=#d6b656;" parent="WIyWlLk6GJQsqaUBKTNV-1" vertex="1">
          <mxGeometry x="33" y="-1327" width="140" height="60" as="geometry" />
        </mxCell>
        <mxCell id="8gSaWVuiy5hUUqjR6Z7Z-110" value="&lt;i&gt;s&#39;applique sur&lt;/i&gt;" style="html=1;verticalAlign=bottom;endArrow=block;rounded=0;entryX=1;entryY=0.5;entryDx=0;entryDy=0;exitX=0;exitY=0.5;exitDx=0;exitDy=0;" parent="WIyWlLk6GJQsqaUBKTNV-1" source="8gSaWVuiy5hUUqjR6Z7Z-90" target="8gSaWVuiy5hUUqjR6Z7Z-109" edge="1">
          <mxGeometry width="80" relative="1" as="geometry">
            <mxPoint x="392" y="-1440" as="sourcePoint" />
            <mxPoint x="472" y="-1440" as="targetPoint" />
          </mxGeometry>
        </mxCell>
        <mxCell id="8gSaWVuiy5hUUqjR6Z7Z-111" value="&lt;i&gt;s&#39;applique à&lt;/i&gt;" style="html=1;verticalAlign=bottom;endArrow=block;rounded=0;entryX=1;entryY=0.5;entryDx=0;entryDy=0;" parent="WIyWlLk6GJQsqaUBKTNV-1" target="8gSaWVuiy5hUUqjR6Z7Z-108" edge="1">
          <mxGeometry width="80" relative="1" as="geometry">
            <mxPoint x="233" y="-1207" as="sourcePoint" />
            <mxPoint x="183" y="-1358" as="targetPoint" />
          </mxGeometry>
        </mxCell>
        <mxCell id="8gSaWVuiy5hUUqjR6Z7Z-112" value="&lt;i&gt;s&#39;applique à&lt;/i&gt;" style="html=1;verticalAlign=bottom;endArrow=block;rounded=0;entryX=1;entryY=0.75;entryDx=0;entryDy=0;exitX=0;exitY=0.5;exitDx=0;exitDy=0;" parent="WIyWlLk6GJQsqaUBKTNV-1" source="8gSaWVuiy5hUUqjR6Z7Z-86" target="8gSaWVuiy5hUUqjR6Z7Z-108" edge="1">
          <mxGeometry x="0.1037" y="-12" width="80" relative="1" as="geometry">
            <mxPoint x="243" y="-1197" as="sourcePoint" />
            <mxPoint x="183" y="-1147" as="targetPoint" />
            <mxPoint as="offset" />
          </mxGeometry>
        </mxCell>
        <mxCell id="8gSaWVuiy5hUUqjR6Z7Z-113" value="RegleStructure" style="swimlane;fontStyle=1;childLayout=stackLayout;horizontal=1;startSize=26;fillColor=#d5e8d4;horizontalStack=0;resizeParent=1;resizeParentMax=0;resizeLast=0;collapsible=1;marginBottom=0;strokeColor=#82b366;rounded=0;" parent="WIyWlLk6GJQsqaUBKTNV-1" vertex="1">
          <mxGeometry x="580" y="-1114" width="140" height="52" as="geometry" />
        </mxCell>
        <mxCell id="8gSaWVuiy5hUUqjR6Z7Z-114" value="+ id : URI" style="text;strokeColor=none;fillColor=#D5E8D4;align=left;verticalAlign=top;spacingLeft=4;spacingRight=4;overflow=hidden;rotatable=0;points=[[0,0.5],[1,0.5]];portConstraint=eastwest;rounded=0;" parent="8gSaWVuiy5hUUqjR6Z7Z-113" vertex="1">
          <mxGeometry y="26" width="140" height="26" as="geometry" />
        </mxCell>
        <mxCell id="8gSaWVuiy5hUUqjR6Z7Z-118" value="ContrainteUnitaire" style="swimlane;fontStyle=3;childLayout=stackLayout;horizontal=1;startSize=26;fillColor=#d5e8d4;horizontalStack=0;resizeParent=1;resizeParentMax=0;resizeLast=0;collapsible=1;marginBottom=0;strokeColor=#82b366;rounded=0;" parent="WIyWlLk6GJQsqaUBKTNV-1" vertex="1">
          <mxGeometry x="580" y="-1339" width="140" height="104" as="geometry" />
        </mxCell>
        <mxCell id="8gSaWVuiy5hUUqjR6Z7Z-119" value="+ id : URI" style="text;strokeColor=none;fillColor=#D5E8D4;align=left;verticalAlign=top;spacingLeft=4;spacingRight=4;overflow=hidden;rotatable=0;points=[[0,0.5],[1,0.5]];portConstraint=eastwest;rounded=0;" parent="8gSaWVuiy5hUUqjR6Z7Z-118" vertex="1">
          <mxGeometry y="26" width="140" height="26" as="geometry" />
        </mxCell>
        <mxCell id="8gSaWVuiy5hUUqjR6Z7Z-120" value="+ nom: varchar" style="text;strokeColor=none;fillColor=#D5E8D4;align=left;verticalAlign=top;spacingLeft=4;spacingRight=4;overflow=hidden;rotatable=0;points=[[0,0.5],[1,0.5]];portConstraint=eastwest;rounded=0;" parent="8gSaWVuiy5hUUqjR6Z7Z-118" vertex="1">
          <mxGeometry y="52" width="140" height="26" as="geometry" />
        </mxCell>
        <mxCell id="8gSaWVuiy5hUUqjR6Z7Z-121" value="+ type: varchar" style="text;strokeColor=none;fillColor=#D5E8D4;align=left;verticalAlign=top;spacingLeft=4;spacingRight=4;overflow=hidden;rotatable=0;points=[[0,0.5],[1,0.5]];portConstraint=eastwest;rounded=0;" parent="8gSaWVuiy5hUUqjR6Z7Z-118" vertex="1">
          <mxGeometry y="78" width="140" height="26" as="geometry" />
        </mxCell>
        <mxCell id="8gSaWVuiy5hUUqjR6Z7Z-124" value="RatioEmpriseSol" style="swimlane;fontStyle=1;childLayout=stackLayout;horizontal=1;startSize=40;fillColor=#d5e8d4;horizontalStack=0;resizeParent=1;resizeParentMax=0;resizeLast=0;collapsible=1;marginBottom=0;strokeColor=#82b366;rounded=0;" parent="WIyWlLk6GJQsqaUBKTNV-1" vertex="1">
          <mxGeometry x="770" y="-1166" width="185" height="66" as="geometry" />
        </mxCell>
        <mxCell id="8gSaWVuiy5hUUqjR6Z7Z-125" value="+ ratioMax: double" style="text;strokeColor=none;fillColor=#D5E8D4;align=left;verticalAlign=top;spacingLeft=4;spacingRight=4;overflow=hidden;rotatable=0;points=[[0,0.5],[1,0.5]];portConstraint=eastwest;rounded=0;" parent="8gSaWVuiy5hUUqjR6Z7Z-124" vertex="1">
          <mxGeometry y="40" width="185" height="26" as="geometry" />
        </mxCell>
        <mxCell id="8gSaWVuiy5hUUqjR6Z7Z-144" value="BandeConstructibilité" style="swimlane;fontStyle=1;childLayout=stackLayout;horizontal=1;startSize=26;fillColor=#d5e8d4;horizontalStack=0;resizeParent=1;resizeParentMax=0;resizeLast=0;collapsible=1;marginBottom=0;strokeColor=#82b366;rounded=0;" parent="WIyWlLk6GJQsqaUBKTNV-1" vertex="1">
          <mxGeometry x="771" y="-995" width="184" height="78" as="geometry">
            <mxRectangle x="771" y="-995" width="170" height="30" as="alternateBounds" />
          </mxGeometry>
        </mxCell>
        <mxCell id="x3ndrFD1Gh-NryQpKRno-11" value="+ type: {Principale, Secondaire}" style="text;strokeColor=none;fillColor=#D5E8D4;align=left;verticalAlign=top;spacingLeft=4;spacingRight=4;overflow=hidden;rotatable=0;points=[[0,0.5],[1,0.5]];portConstraint=eastwest;rounded=0;" parent="8gSaWVuiy5hUUqjR6Z7Z-144" vertex="1">
          <mxGeometry y="26" width="184" height="26" as="geometry" />
        </mxCell>
        <mxCell id="8gSaWVuiy5hUUqjR6Z7Z-146" value="+ profondeur: double" style="text;strokeColor=none;fillColor=#D5E8D4;align=left;verticalAlign=top;spacingLeft=4;spacingRight=4;overflow=hidden;rotatable=0;points=[[0,0.5],[1,0.5]];portConstraint=eastwest;rounded=0;" parent="8gSaWVuiy5hUUqjR6Z7Z-144" vertex="1">
          <mxGeometry y="52" width="184" height="26" as="geometry" />
        </mxCell>
        <mxCell id="8gSaWVuiy5hUUqjR6Z7Z-154" value="" style="edgeStyle=orthogonalEdgeStyle;rounded=0;orthogonalLoop=1;jettySize=auto;html=1;exitX=0;exitY=0.5;exitDx=0;exitDy=0;" parent="WIyWlLk6GJQsqaUBKTNV-1" source="8gSaWVuiy5hUUqjR6Z7Z-147" target="8gSaWVuiy5hUUqjR6Z7Z-102" edge="1">
          <mxGeometry relative="1" as="geometry">
            <mxPoint x="373" y="-840" as="sourcePoint" />
          </mxGeometry>
        </mxCell>
        <mxCell id="8gSaWVuiy5hUUqjR6Z7Z-147" value="ContrainteUnitaireSpécifique" style="swimlane;fontStyle=1;childLayout=stackLayout;horizontal=1;startSize=42;fillColor=#d5e8d4;horizontalStack=0;resizeParent=1;resizeParentMax=0;resizeLast=0;collapsible=1;marginBottom=0;strokeColor=#82b366;rounded=0;" parent="WIyWlLk6GJQsqaUBKTNV-1" vertex="1">
          <mxGeometry x="525" y="-828" width="195" height="42" as="geometry" />
        </mxCell>
        <mxCell id="8gSaWVuiy5hUUqjR6Z7Z-167" value="CoefficientBiotope&#xa;" style="swimlane;fontStyle=1;childLayout=stackLayout;horizontal=1;startSize=26;fillColor=#d5e8d4;horizontalStack=0;resizeParent=1;resizeParentMax=0;resizeLast=0;collapsible=1;marginBottom=0;strokeColor=#82b366;rounded=0;verticalAlign=top;" parent="WIyWlLk6GJQsqaUBKTNV-1" vertex="1">
          <mxGeometry x="771" y="-1434" width="184" height="156" as="geometry">
            <mxRectangle x="780" y="204" width="150" height="30" as="alternateBounds" />
          </mxGeometry>
        </mxCell>
        <mxCell id="8gSaWVuiy5hUUqjR6Z7Z-168" value="+ typeSurfaceCalcule: type" style="text;strokeColor=none;fillColor=#D5E8D4;align=left;verticalAlign=top;spacingLeft=4;spacingRight=4;overflow=hidden;rotatable=0;points=[[0,0.5],[1,0.5]];portConstraint=eastwest;rounded=0;" parent="8gSaWVuiy5hUUqjR6Z7Z-167" vertex="1">
          <mxGeometry y="26" width="184" height="26" as="geometry" />
        </mxCell>
        <mxCell id="8gSaWVuiy5hUUqjR6Z7Z-169" value="+ ratio : double" style="text;strokeColor=none;fillColor=#D5E8D4;align=left;verticalAlign=top;spacingLeft=4;spacingRight=4;overflow=hidden;rotatable=0;points=[[0,0.5],[1,0.5]];portConstraint=eastwest;rounded=0;" parent="8gSaWVuiy5hUUqjR6Z7Z-167" vertex="1">
          <mxGeometry y="52" width="184" height="26" as="geometry" />
        </mxCell>
        <mxCell id="8gSaWVuiy5hUUqjR6Z7Z-171" value="+ coeffParking: double&#xa;" style="text;strokeColor=none;fillColor=#D5E8D4;align=left;verticalAlign=top;spacingLeft=4;spacingRight=4;overflow=hidden;rotatable=0;points=[[0,0.5],[1,0.5]];portConstraint=eastwest;rounded=0;" parent="8gSaWVuiy5hUUqjR6Z7Z-167" vertex="1">
          <mxGeometry y="78" width="184" height="26" as="geometry" />
        </mxCell>
        <mxCell id="8gSaWVuiy5hUUqjR6Z7Z-170" value="+ coeffToitVegetal : double&#xa;" style="text;strokeColor=none;fillColor=#D5E8D4;align=left;verticalAlign=top;spacingLeft=4;spacingRight=4;overflow=hidden;rotatable=0;points=[[0,0.5],[1,0.5]];portConstraint=eastwest;rounded=0;" parent="8gSaWVuiy5hUUqjR6Z7Z-167" vertex="1">
          <mxGeometry y="104" width="184" height="26" as="geometry" />
        </mxCell>
        <mxCell id="8gSaWVuiy5hUUqjR6Z7Z-176" value="+ coeffPlantation: double&#xa;" style="text;strokeColor=none;fillColor=#D5E8D4;align=left;verticalAlign=top;spacingLeft=4;spacingRight=4;overflow=hidden;rotatable=0;points=[[0,0.5],[1,0.5]];portConstraint=eastwest;rounded=0;" parent="8gSaWVuiy5hUUqjR6Z7Z-167" vertex="1">
          <mxGeometry y="130" width="184" height="26" as="geometry" />
        </mxCell>
        <mxCell id="8gSaWVuiy5hUUqjR6Z7Z-177" value="&#xa;&#xa;Interdiction&#xa;&#xa;" style="swimlane;fontStyle=1;childLayout=stackLayout;horizontal=1;startSize=40;fillColor=#d5e8d4;horizontalStack=0;resizeParent=1;resizeParentMax=0;resizeLast=0;collapsible=1;marginBottom=0;strokeColor=#82b366;rounded=0;" parent="WIyWlLk6GJQsqaUBKTNV-1" vertex="1">
          <mxGeometry x="770" y="-1090" width="185" height="22" as="geometry" />
        </mxCell>
        <mxCell id="8gSaWVuiy5hUUqjR6Z7Z-184" value="RetraitAlignement" style="swimlane;fontStyle=1;childLayout=stackLayout;horizontal=1;startSize=40;fillColor=#d5e8d4;horizontalStack=0;resizeParent=1;resizeParentMax=0;resizeLast=0;collapsible=1;marginBottom=0;strokeColor=#82b366;rounded=0;" parent="WIyWlLk6GJQsqaUBKTNV-1" vertex="1">
          <mxGeometry x="770" y="-1267" width="185" height="90" as="geometry">
            <mxRectangle x="850" y="506" width="140" height="40" as="alternateBounds" />
          </mxGeometry>
        </mxCell>
        <mxCell id="8gSaWVuiy5hUUqjR6Z7Z-185" value="+ reference : {fond, limiteLateral, &#xa;, emprisePublique, batiment}" style="text;strokeColor=none;fillColor=#D5E8D4;align=left;verticalAlign=top;spacingLeft=4;spacingRight=4;overflow=hidden;rotatable=0;points=[[0,0.5],[1,0.5]];portConstraint=eastwest;rounded=0;" parent="8gSaWVuiy5hUUqjR6Z7Z-184" vertex="1">
          <mxGeometry y="40" width="185" height="50" as="geometry" />
        </mxCell>
        <mxCell id="8gSaWVuiy5hUUqjR6Z7Z-191" value="Alignement" style="swimlane;fontStyle=1;childLayout=stackLayout;horizontal=1;startSize=40;fillColor=#d5e8d4;horizontalStack=0;resizeParent=1;resizeParentMax=0;resizeLast=0;collapsible=1;marginBottom=0;strokeColor=#82b366;rounded=0;" parent="WIyWlLk6GJQsqaUBKTNV-1" vertex="1">
          <mxGeometry x="1004" y="-1340" width="170" height="40" as="geometry">
            <mxRectangle x="1000" y="360" width="110" height="40" as="alternateBounds" />
          </mxGeometry>
        </mxCell>
        <mxCell id="8gSaWVuiy5hUUqjR6Z7Z-193" value="Retrait" style="swimlane;fontStyle=1;childLayout=stackLayout;horizontal=1;startSize=40;fillColor=#d5e8d4;horizontalStack=0;resizeParent=1;resizeParentMax=0;resizeLast=0;collapsible=1;marginBottom=0;strokeColor=#82b366;rounded=0;" parent="WIyWlLk6GJQsqaUBKTNV-1" vertex="1">
          <mxGeometry x="1004" y="-1286" width="170" height="118" as="geometry" />
        </mxCell>
        <mxCell id="8gSaWVuiy5hUUqjR6Z7Z-195" value="+ distance: double" style="text;strokeColor=none;fillColor=#D5E8D4;align=left;verticalAlign=top;spacingLeft=4;spacingRight=4;overflow=hidden;rotatable=0;points=[[0,0.5],[1,0.5]];portConstraint=eastwest;rounded=0;" parent="8gSaWVuiy5hUUqjR6Z7Z-193" vertex="1">
          <mxGeometry y="40" width="170" height="26" as="geometry" />
        </mxCell>
        <mxCell id="8gSaWVuiy5hUUqjR6Z7Z-196" value="+ type: {Min, Max}" style="text;strokeColor=none;fillColor=#D5E8D4;align=left;verticalAlign=top;spacingLeft=4;spacingRight=4;overflow=hidden;rotatable=0;points=[[0,0.5],[1,0.5]];portConstraint=eastwest;rounded=0;" parent="8gSaWVuiy5hUUqjR6Z7Z-193" vertex="1">
          <mxGeometry y="66" width="170" height="26" as="geometry" />
        </mxCell>
        <mxCell id="8gSaWVuiy5hUUqjR6Z7Z-200" value="alignementAutorise:Boolean" style="text;strokeColor=none;fillColor=#D5E8D4;align=left;verticalAlign=top;spacingLeft=4;spacingRight=4;overflow=hidden;rotatable=0;points=[[0,0.5],[1,0.5]];portConstraint=eastwest;rounded=0;" parent="8gSaWVuiy5hUUqjR6Z7Z-193" vertex="1">
          <mxGeometry y="92" width="170" height="26" as="geometry" />
        </mxCell>
        <mxCell id="8gSaWVuiy5hUUqjR6Z7Z-201" value="RetraitFacadeHauteur" style="swimlane;fontStyle=1;childLayout=stackLayout;horizontal=1;startSize=40;fillColor=#d5e8d4;horizontalStack=0;resizeParent=1;resizeParentMax=0;resizeLast=0;collapsible=1;marginBottom=0;strokeColor=#82b366;rounded=0;" parent="WIyWlLk6GJQsqaUBKTNV-1" vertex="1">
          <mxGeometry x="1004" y="-1151" width="170" height="132" as="geometry" />
        </mxCell>
        <mxCell id="8gSaWVuiy5hUUqjR6Z7Z-202" value="+ typeFace : {AvecVue,&#xa;                  SansVue,  Toutes}&#xa;" style="text;strokeColor=none;fillColor=#D5E8D4;align=left;verticalAlign=top;spacingLeft=4;spacingRight=4;overflow=hidden;rotatable=0;points=[[0,0.5],[1,0.5]];portConstraint=eastwest;rounded=0;" parent="8gSaWVuiy5hUUqjR6Z7Z-201" vertex="1">
          <mxGeometry y="40" width="170" height="40" as="geometry" />
        </mxCell>
        <mxCell id="8gSaWVuiy5hUUqjR6Z7Z-204" value="+ pente: double" style="text;strokeColor=none;fillColor=#D5E8D4;align=left;verticalAlign=top;spacingLeft=4;spacingRight=4;overflow=hidden;rotatable=0;points=[[0,0.5],[1,0.5]];portConstraint=eastwest;rounded=0;" parent="8gSaWVuiy5hUUqjR6Z7Z-201" vertex="1">
          <mxGeometry y="80" width="170" height="26" as="geometry" />
        </mxCell>
        <mxCell id="8gSaWVuiy5hUUqjR6Z7Z-205" value="+ retraitMin: double" style="text;strokeColor=none;fillColor=#D5E8D4;align=left;verticalAlign=top;spacingLeft=4;spacingRight=4;overflow=hidden;rotatable=0;points=[[0,0.5],[1,0.5]];portConstraint=eastwest;rounded=0;" parent="8gSaWVuiy5hUUqjR6Z7Z-201" vertex="1">
          <mxGeometry y="106" width="170" height="26" as="geometry" />
        </mxCell>
        <mxCell id="N2tUr6UEc7fx2WgPVd-r-0" value="&#xa;RouteBordante&#xa;" style="swimlane;fontStyle=1;childLayout=stackLayout;horizontal=1;startSize=26;fillColor=#d5e8d4;horizontalStack=0;resizeParent=1;resizeParentMax=0;resizeLast=0;collapsible=1;marginBottom=0;strokeColor=#82b366;rounded=0;" parent="WIyWlLk6GJQsqaUBKTNV-1" vertex="1">
          <mxGeometry x="771" y="-762" width="184" height="104" as="geometry" />
        </mxCell>
        <mxCell id="N2tUr6UEc7fx2WgPVd-r-1" value="+ type: varchar[]" style="text;strokeColor=none;fillColor=#D5E8D4;align=left;verticalAlign=top;spacingLeft=4;spacingRight=4;overflow=hidden;rotatable=0;points=[[0,0.5],[1,0.5]];portConstraint=eastwest;rounded=0;" parent="N2tUr6UEc7fx2WgPVd-r-0" vertex="1">
          <mxGeometry y="26" width="184" height="26" as="geometry" />
        </mxCell>
        <mxCell id="N2tUr6UEc7fx2WgPVd-r-2" value="nom : varchar[]&#xa;" style="text;strokeColor=none;fillColor=#D5E8D4;align=left;verticalAlign=top;spacingLeft=4;spacingRight=4;overflow=hidden;rotatable=0;points=[[0,0.5],[1,0.5]];portConstraint=eastwest;rounded=0;" parent="N2tUr6UEc7fx2WgPVd-r-0" vertex="1">
          <mxGeometry y="52" width="184" height="26" as="geometry" />
        </mxCell>
        <mxCell id="N2tUr6UEc7fx2WgPVd-r-3" value="largeurRoute: Interval&#xa;" style="text;strokeColor=none;fillColor=#D5E8D4;align=left;verticalAlign=top;spacingLeft=4;spacingRight=4;overflow=hidden;rotatable=0;points=[[0,0.5],[1,0.5]];portConstraint=eastwest;rounded=0;" parent="N2tUr6UEc7fx2WgPVd-r-0" vertex="1">
          <mxGeometry y="78" width="184" height="26" as="geometry" />
        </mxCell>
        <mxCell id="N2tUr6UEc7fx2WgPVd-r-4" value="&#xa;TypeBatiment&#xa;&#xa;" style="swimlane;fontStyle=1;childLayout=stackLayout;horizontal=1;startSize=26;fillColor=#d5e8d4;horizontalStack=0;resizeParent=1;resizeParentMax=0;resizeLast=0;collapsible=1;marginBottom=0;strokeColor=#82b366;rounded=0;" parent="WIyWlLk6GJQsqaUBKTNV-1" vertex="1">
          <mxGeometry x="771" y="-905" width="184" height="52" as="geometry">
            <mxRectangle x="771" y="-905" width="120" height="60" as="alternateBounds" />
          </mxGeometry>
        </mxCell>
        <mxCell id="N2tUr6UEc7fx2WgPVd-r-5" value="+ destination: varchar[] " style="text;strokeColor=none;fillColor=#D5E8D4;align=left;verticalAlign=top;spacingLeft=4;spacingRight=4;overflow=hidden;rotatable=0;points=[[0,0.5],[1,0.5]];portConstraint=eastwest;rounded=0;" parent="N2tUr6UEc7fx2WgPVd-r-4" vertex="1">
          <mxGeometry y="26" width="184" height="26" as="geometry" />
        </mxCell>
        <mxCell id="N2tUr6UEc7fx2WgPVd-r-14" value="Autorisation" style="swimlane;fontStyle=1;childLayout=stackLayout;horizontal=1;startSize=40;fillColor=#d5e8d4;horizontalStack=0;resizeParent=1;resizeParentMax=0;resizeLast=0;collapsible=1;marginBottom=0;strokeColor=#82b366;rounded=0;" parent="WIyWlLk6GJQsqaUBKTNV-1" vertex="1">
          <mxGeometry x="771" y="-1056" width="184" height="22" as="geometry">
            <mxRectangle x="771" y="-1056" width="110" height="40" as="alternateBounds" />
          </mxGeometry>
        </mxCell>
        <mxCell id="TGg9PMkNz1fRDnrvWDFg-7" value="ConditionUnitaire" style="swimlane;fontStyle=3;childLayout=stackLayout;horizontal=1;startSize=26;fillColor=#d5e8d4;horizontalStack=0;resizeParent=1;resizeParentMax=0;resizeLast=0;collapsible=1;marginBottom=0;strokeColor=#82b366;rounded=0;" parent="WIyWlLk6GJQsqaUBKTNV-1" vertex="1">
          <mxGeometry x="580" y="-934" width="140" height="52" as="geometry" />
        </mxCell>
        <mxCell id="TGg9PMkNz1fRDnrvWDFg-8" value="+ id : URI" style="text;strokeColor=none;fillColor=#D5E8D4;align=left;verticalAlign=top;spacingLeft=4;spacingRight=4;overflow=hidden;rotatable=0;points=[[0,0.5],[1,0.5]];portConstraint=eastwest;rounded=0;" parent="TGg9PMkNz1fRDnrvWDFg-7" vertex="1">
          <mxGeometry y="26" width="140" height="26" as="geometry" />
        </mxCell>
        <mxCell id="TGg9PMkNz1fRDnrvWDFg-10" value="&lt;i&gt;est conditionnée par&lt;/i&gt;" style="endArrow=open;html=1;endSize=12;startArrow=diamondThin;startSize=14;startFill=0;rounded=0;entryX=0.432;entryY=0;entryDx=0;entryDy=0;entryPerimeter=0;exitX=0.429;exitY=0.962;exitDx=0;exitDy=0;exitPerimeter=0;" parent="WIyWlLk6GJQsqaUBKTNV-1" source="8gSaWVuiy5hUUqjR6Z7Z-114" target="TGg9PMkNz1fRDnrvWDFg-7" edge="1">
          <mxGeometry relative="1" as="geometry">
            <mxPoint x="640" y="-1050" as="sourcePoint" />
            <mxPoint x="640" y="-990" as="targetPoint" />
          </mxGeometry>
        </mxCell>
        <mxCell id="TGg9PMkNz1fRDnrvWDFg-11" value="0..n" style="edgeLabel;resizable=0;html=1;align=left;verticalAlign=top;rounded=0;" parent="TGg9PMkNz1fRDnrvWDFg-10" connectable="0" vertex="1">
          <mxGeometry x="-1" relative="1" as="geometry" />
        </mxCell>
        <mxCell id="TGg9PMkNz1fRDnrvWDFg-12" value="1" style="edgeLabel;resizable=0;html=1;align=right;verticalAlign=top;rounded=0;" parent="TGg9PMkNz1fRDnrvWDFg-10" connectable="0" vertex="1">
          <mxGeometry x="1" relative="1" as="geometry">
            <mxPoint x="19" y="-24" as="offset" />
          </mxGeometry>
        </mxCell>
        <mxCell id="TGg9PMkNz1fRDnrvWDFg-32" value="&#xa;SurfaceTerrain&#xa;&#xa;" style="swimlane;fontStyle=1;childLayout=stackLayout;horizontal=1;startSize=26;fillColor=#d5e8d4;horizontalStack=0;resizeParent=1;resizeParentMax=0;resizeLast=0;collapsible=1;marginBottom=0;strokeColor=#82b366;rounded=0;" parent="WIyWlLk6GJQsqaUBKTNV-1" vertex="1">
          <mxGeometry x="771" y="-842" width="184" height="70" as="geometry">
            <mxRectangle x="771" y="-842" width="120" height="60" as="alternateBounds" />
          </mxGeometry>
        </mxCell>
        <mxCell id="TGg9PMkNz1fRDnrvWDFg-33" value="+ aireMin: double precision&#xa;+ aireMax: double precision" style="text;strokeColor=none;fillColor=#D5E8D4;align=left;verticalAlign=top;spacingLeft=4;spacingRight=4;overflow=hidden;rotatable=0;points=[[0,0.5],[1,0.5]];portConstraint=eastwest;rounded=0;" parent="TGg9PMkNz1fRDnrvWDFg-32" vertex="1">
          <mxGeometry y="26" width="184" height="44" as="geometry" />
        </mxCell>
        <mxCell id="TGg9PMkNz1fRDnrvWDFg-34" value="&amp;nbsp;" style="endArrow=block;endSize=16;endFill=0;html=1;rounded=0;startArrow=none;" parent="WIyWlLk6GJQsqaUBKTNV-1" edge="1">
          <mxGeometry x="-0.3066" y="46" width="160" relative="1" as="geometry">
            <mxPoint x="630" y="-830" as="sourcePoint" />
            <mxPoint x="630" y="-880" as="targetPoint" />
            <mxPoint as="offset" />
            <Array as="points" />
          </mxGeometry>
        </mxCell>
        <mxCell id="x3ndrFD1Gh-NryQpKRno-10" value="&amp;nbsp;" style="endArrow=block;endSize=16;endFill=0;html=1;rounded=0;entryX=1.009;entryY=0.123;entryDx=0;entryDy=0;entryPerimeter=0;" parent="WIyWlLk6GJQsqaUBKTNV-1" edge="1">
          <mxGeometry x="-0.1985" y="-11" width="160" relative="1" as="geometry">
            <mxPoint x="754" y="-913" as="sourcePoint" />
            <mxPoint x="721.26" y="-912.6039999999999" as="targetPoint" />
            <mxPoint as="offset" />
            <Array as="points" />
          </mxGeometry>
        </mxCell>
        <mxCell id="TGg9PMkNz1fRDnrvWDFg-3" value="&lt;i style=&quot;font-size: 11px; background-color: rgb(255, 255, 255);&quot;&gt;entraîne les&lt;br style=&quot;font-size: 11px;&quot;&gt;contraintes&lt;/i&gt;" style="text;html=1;align=center;verticalAlign=middle;resizable=0;points=[];autosize=1;strokeColor=none;fillColor=none;rounded=0;fontSize=11;" parent="WIyWlLk6GJQsqaUBKTNV-1" vertex="1">
          <mxGeometry x="603" y="-1186" width="80" height="40" as="geometry" />
        </mxCell>
        <mxCell id="x3ndrFD1Gh-NryQpKRno-35" value="&amp;nbsp;" style="endArrow=block;endSize=16;endFill=0;html=1;rounded=0;entryX=1;entryY=0.25;entryDx=0;entryDy=0;exitX=0.005;exitY=0.312;exitDx=0;exitDy=0;exitPerimeter=0;" parent="WIyWlLk6GJQsqaUBKTNV-1" source="uj2GFUp7TWxMebJnhP7S-3" target="8gSaWVuiy5hUUqjR6Z7Z-184" edge="1">
          <mxGeometry x="-0.1985" y="-11" width="160" relative="1" as="geometry">
            <mxPoint x="984" y="-1244" as="sourcePoint" />
            <mxPoint x="1053" y="-1543" as="targetPoint" />
            <mxPoint as="offset" />
            <Array as="points" />
          </mxGeometry>
        </mxCell>
        <mxCell id="PbIzmOtg3me5n7JyTSmk-0" value="&amp;nbsp;" style="endArrow=block;endSize=16;endFill=0;html=1;rounded=0;entryX=1.007;entryY=0.846;entryDx=0;entryDy=0;entryPerimeter=0;" parent="WIyWlLk6GJQsqaUBKTNV-1" edge="1">
          <mxGeometry x="-0.1385" y="-11" width="160" relative="1" as="geometry">
            <mxPoint x="754" y="-1299" as="sourcePoint" />
            <mxPoint x="719.98" y="-1299.004" as="targetPoint" />
            <mxPoint as="offset" />
          </mxGeometry>
        </mxCell>
        <mxCell id="uj2GFUp7TWxMebJnhP7S-4" value="Hauteur" style="swimlane;fontStyle=3;childLayout=stackLayout;horizontal=1;startSize=26;fillColor=#d5e8d4;horizontalStack=0;resizeParent=1;resizeParentMax=0;resizeLast=0;collapsible=1;marginBottom=0;strokeColor=#82b366;rounded=0;arcSize=15;" parent="WIyWlLk6GJQsqaUBKTNV-1" vertex="1">
          <mxGeometry x="770" y="-1550" width="185" height="104" as="geometry" />
        </mxCell>
        <mxCell id="uj2GFUp7TWxMebJnhP7S-5" value="+ valMax : double" style="text;strokeColor=none;fillColor=#D5E8D4;align=left;verticalAlign=top;spacingLeft=4;spacingRight=4;overflow=hidden;rotatable=0;points=[[0,0.5],[1,0.5]];portConstraint=eastwest;rounded=0;" parent="uj2GFUp7TWxMebJnhP7S-4" vertex="1">
          <mxGeometry y="26" width="185" height="26" as="geometry" />
        </mxCell>
        <mxCell id="uj2GFUp7TWxMebJnhP7S-6" value="+ typeZmin : {TypeZMin}" style="text;strokeColor=none;fillColor=#D5E8D4;align=left;verticalAlign=top;spacingLeft=4;spacingRight=4;overflow=hidden;rotatable=0;points=[[0,0.5],[1,0.5]];portConstraint=eastwest;rounded=0;" parent="uj2GFUp7TWxMebJnhP7S-4" vertex="1">
          <mxGeometry y="52" width="185" height="26" as="geometry" />
        </mxCell>
        <mxCell id="uj2GFUp7TWxMebJnhP7S-7" value="+ typeZmax : {TypeZMax}" style="text;strokeColor=none;fillColor=#D5E8D4;align=left;verticalAlign=top;spacingLeft=4;spacingRight=4;overflow=hidden;rotatable=0;points=[[0,0.5],[1,0.5]];portConstraint=eastwest;rounded=0;" parent="uj2GFUp7TWxMebJnhP7S-4" vertex="1">
          <mxGeometry y="78" width="185" height="26" as="geometry" />
        </mxCell>
        <mxCell id="uj2GFUp7TWxMebJnhP7S-9" value="&lt;b&gt;&lt;font style=&quot;font-size: 14px;&quot;&gt;Standard CNIG SRU niveau 2&amp;nbsp; &amp;nbsp;-&amp;nbsp; &amp;nbsp;06/12/2022&amp;nbsp;&amp;nbsp;&lt;/font&gt;&lt;/b&gt;" style="rounded=0;whiteSpace=wrap;html=1;labelBackgroundColor=#FFFFFF;fillColor=none;strokeWidth=2;align=center;" parent="WIyWlLk6GJQsqaUBKTNV-1" vertex="1">
          <mxGeometry x="391" y="-1590" width="329" height="30" as="geometry" />
        </mxCell>
        <mxCell id="uj2GFUp7TWxMebJnhP7S-11" value="Operateur logique" style="swimlane;fontStyle=1;childLayout=stackLayout;horizontal=1;startSize=20;fillColor=#dae8fc;horizontalStack=0;resizeParent=1;resizeParentMax=0;resizeLast=0;collapsible=1;marginBottom=0;strokeColor=#6c8ebf;rounded=0;" parent="WIyWlLk6GJQsqaUBKTNV-1" vertex="1">
          <mxGeometry x="442" y="-987" width="123" height="46" as="geometry" />
        </mxCell>
        <mxCell id="uj2GFUp7TWxMebJnhP7S-12" value="+ operator: {OR,AND}" style="text;strokeColor=#6c8ebf;fillColor=#dae8fc;align=left;verticalAlign=top;spacingLeft=4;spacingRight=4;overflow=hidden;rotatable=0;points=[[0,0.5],[1,0.5]];portConstraint=eastwest;rounded=0;" parent="uj2GFUp7TWxMebJnhP7S-11" vertex="1">
          <mxGeometry y="20" width="123" height="26" as="geometry" />
        </mxCell>
        <mxCell id="uj2GFUp7TWxMebJnhP7S-13" value="" style="endArrow=block;endFill=1;html=1;align=left;verticalAlign=top;rounded=0;exitX=0.007;exitY=0.192;exitDx=0;exitDy=0;exitPerimeter=0;" parent="WIyWlLk6GJQsqaUBKTNV-1" source="TGg9PMkNz1fRDnrvWDFg-8" target="uj2GFUp7TWxMebJnhP7S-12" edge="1">
          <mxGeometry x="0.1498" y="-14" relative="1" as="geometry">
            <mxPoint x="581" y="-910" as="sourcePoint" />
            <mxPoint x="443" y="-942" as="targetPoint" />
            <mxPoint as="offset" />
            <Array as="points">
              <mxPoint x="504" y="-903" />
            </Array>
          </mxGeometry>
        </mxCell>
        <mxCell id="uj2GFUp7TWxMebJnhP7S-14" value="&lt;i&gt;condition suivante&lt;/i&gt;" style="edgeLabel;html=1;align=center;verticalAlign=middle;resizable=0;points=[];" parent="uj2GFUp7TWxMebJnhP7S-13" connectable="0" vertex="1">
          <mxGeometry x="-0.227" y="2" relative="1" as="geometry">
            <mxPoint x="-25" y="-17" as="offset" />
          </mxGeometry>
        </mxCell>
        <mxCell id="uj2GFUp7TWxMebJnhP7S-15" value="&lt;i&gt;nom&lt;/i&gt;" style="endArrow=block;endFill=1;html=1;align=left;verticalAlign=top;rounded=0;exitX=1;exitY=0.25;exitDx=0;exitDy=0;entryX=0.093;entryY=0.019;entryDx=0;entryDy=0;horizontal=1;entryPerimeter=0;" parent="WIyWlLk6GJQsqaUBKTNV-1" source="uj2GFUp7TWxMebJnhP7S-11" target="TGg9PMkNz1fRDnrvWDFg-7" edge="1">
          <mxGeometry x="-0.4854" relative="1" as="geometry">
            <mxPoint x="700" y="-983" as="sourcePoint" />
            <mxPoint x="581" y="-923" as="targetPoint" />
            <Array as="points">
              <mxPoint x="594" y="-975" />
            </Array>
            <mxPoint as="offset" />
          </mxGeometry>
        </mxCell>
        <mxCell id="uj2GFUp7TWxMebJnhP7S-16" value="1" style="edgeLabel;resizable=0;html=1;align=left;verticalAlign=bottom;rounded=0;" parent="uj2GFUp7TWxMebJnhP7S-15" connectable="0" vertex="1">
          <mxGeometry x="-1" relative="1" as="geometry" />
        </mxCell>
        <mxCell id="uj2GFUp7TWxMebJnhP7S-24" value="Operateur logique" style="swimlane;fontStyle=1;childLayout=stackLayout;horizontal=1;startSize=20;fillColor=#dae8fc;horizontalStack=0;resizeParent=1;resizeParentMax=0;resizeLast=0;collapsible=1;marginBottom=0;strokeColor=#6c8ebf;rounded=0;" parent="WIyWlLk6GJQsqaUBKTNV-1" vertex="1">
          <mxGeometry x="442" y="-1393" width="123" height="46" as="geometry" />
        </mxCell>
        <mxCell id="uj2GFUp7TWxMebJnhP7S-25" value="+ operator: {OR,AND}" style="text;strokeColor=#6c8ebf;fillColor=#dae8fc;align=left;verticalAlign=top;spacingLeft=4;spacingRight=4;overflow=hidden;rotatable=0;points=[[0,0.5],[1,0.5]];portConstraint=eastwest;rounded=0;" parent="uj2GFUp7TWxMebJnhP7S-24" vertex="1">
          <mxGeometry y="20" width="123" height="26" as="geometry" />
        </mxCell>
        <mxCell id="uj2GFUp7TWxMebJnhP7S-26" value="" style="endArrow=block;endFill=1;html=1;align=left;verticalAlign=top;rounded=0;exitX=-0.007;exitY=0.096;exitDx=0;exitDy=0;exitPerimeter=0;" parent="WIyWlLk6GJQsqaUBKTNV-1" source="8gSaWVuiy5hUUqjR6Z7Z-119" target="uj2GFUp7TWxMebJnhP7S-25" edge="1">
          <mxGeometry x="0.1498" y="-14" relative="1" as="geometry">
            <mxPoint x="574" y="-1310" as="sourcePoint" />
            <mxPoint x="443" y="-1348" as="targetPoint" />
            <mxPoint as="offset" />
            <Array as="points">
              <mxPoint x="504" y="-1310" />
            </Array>
          </mxGeometry>
        </mxCell>
        <mxCell id="uj2GFUp7TWxMebJnhP7S-27" value="&lt;i&gt;contrainte suivante&lt;/i&gt;" style="edgeLabel;html=1;align=center;verticalAlign=middle;resizable=0;points=[];" parent="uj2GFUp7TWxMebJnhP7S-26" connectable="0" vertex="1">
          <mxGeometry x="-0.227" y="2" relative="1" as="geometry">
            <mxPoint x="-25" y="-17" as="offset" />
          </mxGeometry>
        </mxCell>
        <mxCell id="uj2GFUp7TWxMebJnhP7S-28" value="&lt;i&gt;nom&lt;/i&gt;" style="endArrow=block;endFill=1;html=1;align=left;verticalAlign=top;rounded=0;exitX=1;exitY=0.25;exitDx=0;exitDy=0;horizontal=1;entryX=0.086;entryY=0.005;entryDx=0;entryDy=0;entryPerimeter=0;" parent="WIyWlLk6GJQsqaUBKTNV-1" source="uj2GFUp7TWxMebJnhP7S-24" target="8gSaWVuiy5hUUqjR6Z7Z-118" edge="1">
          <mxGeometry x="-0.4854" relative="1" as="geometry">
            <mxPoint x="700" y="-1389" as="sourcePoint" />
            <mxPoint x="593" y="-1350" as="targetPoint" />
            <Array as="points">
              <mxPoint x="594" y="-1381" />
            </Array>
            <mxPoint as="offset" />
          </mxGeometry>
        </mxCell>
        <mxCell id="uj2GFUp7TWxMebJnhP7S-29" value="1" style="edgeLabel;resizable=0;html=1;align=left;verticalAlign=bottom;rounded=0;" parent="uj2GFUp7TWxMebJnhP7S-28" connectable="0" vertex="1">
          <mxGeometry x="-1" relative="1" as="geometry" />
        </mxCell>
      </root>
    </mxGraphModel>
  </diagram>
</mxfile>
